<?xml version="1.0" encoding="UTF-8" standalone="no"?>
<!-- Generator: Adobe Illustrator 19.2.0, SVG Export Plug-In . SVG Version: 6.00 Build 0)  -->

<svg
   xmlns:dc="http://purl.org/dc/elements/1.1/"
   xmlns:cc="http://creativecommons.org/ns#"
   xmlns:rdf="http://www.w3.org/1999/02/22-rdf-syntax-ns#"
   xmlns:svg="http://www.w3.org/2000/svg"
   xmlns="http://www.w3.org/2000/svg"
   xmlns:sodipodi="http://sodipodi.sourceforge.net/DTD/sodipodi-0.dtd"
   xmlns:inkscape="http://www.inkscape.org/namespaces/inkscape"
   version="1.1"
   id="Layer_1"
   x="0px"
   y="0px"
   viewBox="0 0 361.7 150.30001"
   xml:space="preserve"
   sodipodi:docname="know-it-all_190404.svg"
   inkscape:version="0.92.2 2405546, 2018-03-11"
   width="361.70001"
   height="150.3"><metadata
   id="metadata174"><rdf:RDF><cc:Work
       rdf:about=""><dc:format>image/svg+xml</dc:format><dc:type
         rdf:resource="http://purl.org/dc/dcmitype/StillImage" /><dc:title></dc:title></cc:Work></rdf:RDF></metadata><defs
   id="defs172" /><sodipodi:namedview
   pagecolor="#ffffff"
   bordercolor="#666666"
   borderopacity="1"
   objecttolerance="10"
   gridtolerance="10"
   guidetolerance="10"
   inkscape:pageopacity="0"
   inkscape:pageshadow="2"
   inkscape:window-width="1280"
   inkscape:window-height="1024"
   id="namedview170"
   showgrid="false"
   inkscape:zoom="2.0453735"
   inkscape:cx="178.5622"
   inkscape:cy="116.21403"
   inkscape:window-x="0"
   inkscape:window-y="0"
   inkscape:window-maximized="0"
   inkscape:current-layer="Layer_1" />
<style
   type="text/css"
   id="style120">
	.st0{fill:#3D84A8;}
	.st1{fill:#48466D;fill-opacity:0.9861;}
	.st2{fill:#46CDCF;}
</style>
<polygon
   id="XMLID_85_"
   class="st0"
   points="242.8,278.4 421.5,226.5 599.9,278.3 602.2,277.7 421.5,222.8 240.5,277.7 "
   inkscape:export-xdpi="600"
   inkscape:export-ydpi="600"
   style="fill:#3d84a8"
   transform="translate(-240.5,-222.8)" />
<path
   id="rect6070-1-72_2_"
   class="st1"
   d="M 181,7.9 9.7,57.7 c 0,0.1 0,0 0,0.1 L 181,107.6 352.2,57.8 c 0,-0.1 0,0 0,-0.1 z"
   style="fill:#48466d;fill-opacity:0.98610002;stroke:#000000;stroke-width:2;stroke-miterlimit:4;stroke-dasharray:none;stroke-opacity:1"
   inkscape:export-xdpi="600"
   inkscape:export-ydpi="600"
   inkscape:connector-curvature="0" />
<path
   id="path3916-0-5-8-3_2_"
   class="st2"
   d="m 36.3,17.1 9,1.8 0.3,41 13.3,-38.2 7.9,1.5 -10,36.6 11,34.5 -11.1,2.4 -6.2,-30.4 -4.8,5 -0.3,28 -9,1.6 z"
   style="fill:#46cdcf;stroke:#3d5da8;stroke-width:1;stroke-linecap:butt;stroke-linejoin:miter;stroke-miterlimit:10;stroke-dasharray:none;stroke-opacity:1;paint-order:markers fill stroke"
   inkscape:connector-curvature="0"
   sodipodi:nodetypes="cccccccccccccc"
   inkscape:export-xdpi="600"
   inkscape:export-ydpi="600" />
<path
   id="path3918-22-91-5-0_2_"
   class="st2"
   d="m 71.5,24.5 8.7,1.7 11.4,34.1 -0.4,-32.9 9.2,1.6 V 87.9 L 91.6,89.3 80.3,57.1 v 34.7 l -8.8,1.4 z"
   style="fill:#46cdcf;stroke:#3d5da8;stroke-width:1;stroke-linecap:butt;stroke-linejoin:miter;stroke-miterlimit:10;stroke-dasharray:none;stroke-opacity:1;paint-order:markers fill stroke"
   inkscape:export-xdpi="600"
   inkscape:export-ydpi="600"
   inkscape:connector-curvature="0" />
<path
   id="XMLID_81_"
   class="st2"
   d="M 132.7,36.1 C 130,33.4 126.1,32 121.1,32 c -4.9,0 -8.7,1.4 -11.5,4.1 -2.7,2.7 -4.1,17.7 -4.1,22.7 0,3.5 0.7,15.9 2.1,18.2 1.4,2.3 3.2,4.9 5.4,6 2.2,1.1 5.1,1.6 8.5,1.6 3.4,0 6.1,-1.4 8.4,-2.7 2.3,-1.3 4,-3 5.2,-5.3 1.2,-2.3 1.8,-14.6 1.8,-18.1 -0.1,-4.8 -1.5,-19.8 -4.2,-22.4 z m -6.9,38.8 c -1.1,1.3 -2.7,2 -4.7,2 -2,0 -3.5,-0.7 -4.6,-2 -1.1,-1.3 -1.7,-12.9 -1.7,-16 0,-3.1 0.6,-16.4 1.7,-17.8 1.1,-1.4 2.7,-2 4.5,-2 2,0 3.5,0.7 4.7,2 1.2,1.3 1.7,14.5 1.7,17.4 0.1,3.3 -0.5,15.1 -1.6,16.4 z"
   style="fill:#46cdcf;stroke:#3d5da8;stroke-width:1;stroke-linecap:butt;stroke-linejoin:miter;stroke-miterlimit:10;stroke-dasharray:none;stroke-opacity:1;paint-order:markers fill stroke"
   inkscape:export-xdpi="600"
   inkscape:export-ydpi="600"
   inkscape:connector-curvature="0" />
<path
   id="path3922-0-7-8-1_2_"
   class="st2"
   d="m 138.1,34.6 8.9,1.2 3.2,24.7 4.7,-24.7 h 8.8 l 4.7,24.7 3,-23.7 h 8.8 l -6.4,42.6 h -9.2 l -5.4,-24.6 -5.3,25.7 -8.7,0.5 z"
   style="fill:#46cdcf;stroke:#3d5da8;stroke-width:1;stroke-linecap:butt;stroke-linejoin:miter;stroke-miterlimit:10;stroke-dasharray:none;stroke-opacity:1;paint-order:markers fill stroke"
   inkscape:export-xdpi="600"
   inkscape:export-ydpi="600"
   inkscape:connector-curvature="0" />
<path
   id="path3924-3-41-3-5_2_"
   class="st2"
   d="M 180.8,59.6 H 193 v 6.5 h -12.2 z"
   style="fill:#46cdcf;stroke:#3d5da8;stroke-width:1;stroke-linecap:butt;stroke-linejoin:miter;stroke-miterlimit:10;stroke-dasharray:none;stroke-opacity:1;paint-order:markers fill stroke"
   inkscape:export-xdpi="600"
   inkscape:export-ydpi="600"
   inkscape:connector-curvature="0" />
<path
   id="path3928-8-9-7-5_2_"
   class="st2"
   d="m 211.5,35.4 28.2,-2.3 0.1,8.3 h -9.5 v 39 L 221,79.5 V 41.3 h -9.5 z"
   style="fill:#46cdcf;stroke:#3d5da8;stroke-width:1;stroke-linecap:butt;stroke-linejoin:miter;stroke-miterlimit:10;stroke-dasharray:none;stroke-opacity:1;paint-order:markers fill stroke"
   inkscape:export-xdpi="600"
   inkscape:export-ydpi="600"
   inkscape:connector-curvature="0" />
<path
   id="path3930-71-1-8-0_2_"
   class="st2"
   d="m 239,59.6 h 12.2 v 6.5 H 239 Z"
   style="fill:#46cdcf;stroke:#3d5da8;stroke-width:1;stroke-linecap:butt;stroke-linejoin:miter;stroke-miterlimit:10;stroke-dasharray:none;stroke-opacity:1;paint-order:markers fill stroke"
   inkscape:export-xdpi="600"
   inkscape:export-ydpi="600"
   inkscape:connector-curvature="0" />
<path
   id="path3934-0-7-2-3_2_"
   class="st2"
   d="m 288.1,24.2 9.8,-1.4 0.7,59 13.5,2.1 0.1,9.6 -23.9,-4.4 z"
   style="fill:#46cdcf;stroke:#3d5da8;stroke-width:1;stroke-linecap:butt;stroke-linejoin:miter;stroke-miterlimit:10;stroke-dasharray:none;stroke-opacity:1;paint-order:markers fill stroke"
   inkscape:export-xdpi="600"
   inkscape:export-ydpi="600"
   inkscape:connector-curvature="0" />
<path
   id="path3936-60-4-6-4_2_"
   class="st2"
   d="m 316.3,18.2 11.4,-1.9 -0.3,69.2 12.7,2.1 0.1,12.1 -23.9,-5.6 z"
   style="fill:#46cdcf;stroke:#3d5da8;stroke-width:1;stroke-linecap:butt;stroke-linejoin:miter;stroke-miterlimit:10;stroke-dasharray:none;stroke-opacity:1;paint-order:markers fill stroke"
   inkscape:export-xdpi="600"
   inkscape:export-ydpi="600"
   inkscape:connector-curvature="0" />
<path
   id="rect2993_2_"
   class="st1"
   d="M 339.9,120.3 H 36.6 c -0.2,0 -0.3,0.1 -0.3,0.3 V 150 c 0,0.2 0.1,0.3 0.3,0.3 h 303.3 c 0.2,0 0.3,-0.1 0.3,-0.3 v -29.4 c 0,-0.1 -0.1,-0.3 -0.3,-0.3 z"
   style="fill:#48466c;fill-opacity:0.98823529"
   inkscape:connector-curvature="0"
   sodipodi:nodetypes="sssssssss"
   inkscape:export-xdpi="600"
   inkscape:export-ydpi="600" />
<g
   id="XMLID_19_"
   style="fill:#ffffff;fill-opacity:1"
   inkscape:export-xdpi="600"
   inkscape:export-ydpi="600"
   transform="translate(-240.5,-222.8)">
	<g
   id="XMLID_550_"
   style="fill:#ffffff;fill-opacity:1">
		<g
   id="XMLID_585_"
   style="fill:#ffffff;fill-opacity:1">
			<rect
   id="XMLID_586_"
   x="296.70001"
   y="350.60001"
   class="st0"
   width="1.9"
   height="15"
   style="fill:#ffffff;fill-opacity:1" />
		</g>
		<g
   id="XMLID_583_"
   style="fill:#ffffff;fill-opacity:1">
			<polygon
   id="XMLID_584_"
   class="st0"
   points="317.7,350.6 319.6,350.6 319.6,365.6 317.7,365.6 311.7,354.1 311.7,365.6 309.8,365.6 309.8,350.6 311.7,350.6 317.7,362.3 "
   style="fill:#ffffff;fill-opacity:1" />
		</g>
		<g
   id="XMLID_581_"
   style="fill:#ffffff;fill-opacity:1">
			<path
   id="XMLID_582_"
   class="st0"
   d="m 340.2,360.9 c -0.1,1.6 -0.5,2.8 -1.4,3.7 -0.8,0.9 -2,1.3 -3.5,1.3 -1.5,0 -2.7,-0.6 -3.6,-1.7 -0.9,-1.1 -1.3,-2.7 -1.3,-4.7 v -2.7 c 0,-2 0.5,-3.5 1.4,-4.6 0.9,-1.1 2.2,-1.7 3.7,-1.7 1.4,0 2.6,0.4 3.4,1.3 0.8,0.9 1.2,2.1 1.3,3.7 h -1.9 c -0.1,-1.2 -0.3,-2.1 -0.8,-2.6 -0.5,-0.5 -1.1,-0.8 -2,-0.8 -1,0 -1.8,0.4 -2.4,1.2 -0.5,0.8 -0.8,2 -0.8,3.5 v 2.8 c 0,1.5 0.3,2.7 0.8,3.5 0.5,0.8 1.3,1.2 2.2,1.2 1,0 1.7,-0.2 2.1,-0.7 0.4,-0.5 0.7,-1.4 0.8,-2.6 z"
   inkscape:connector-curvature="0"
   style="fill:#ffffff;fill-opacity:1" />
		</g>
		<g
   id="XMLID_579_"
   style="fill:#ffffff;fill-opacity:1">
			<polygon
   id="XMLID_580_"
   class="st0"
   points="350.6,350.6 358.6,350.6 358.6,352.3 352.5,352.3 352.5,357.1 357.8,357.1 357.8,358.7 352.5,358.7 352.5,364 358.7,364 358.7,365.6 350.6,365.6 "
   style="fill:#ffffff;fill-opacity:1" />
		</g>
		<g
   id="XMLID_577_"
   style="fill:#ffffff;fill-opacity:1">
			<polygon
   id="XMLID_578_"
   class="st0"
   points="377,350.6 378.8,350.6 378.8,365.6 376.9,365.6 370.9,354.1 370.9,365.6 369,365.6 369,350.6 370.9,350.6 377,362.3 "
   style="fill:#ffffff;fill-opacity:1" />
		</g>
		<g
   id="XMLID_575_"
   style="fill:#ffffff;fill-opacity:1">
			<polygon
   id="XMLID_576_"
   class="st0"
   points="394.8,365.6 392.9,365.6 392.9,352.3 389,352.3 389,350.6 398.8,350.6 398.8,352.3 394.8,352.3 "
   style="fill:#ffffff;fill-opacity:1" />
		</g>
		<g
   id="XMLID_573_"
   style="fill:#ffffff;fill-opacity:1">
			<rect
   id="XMLID_574_"
   x="409"
   y="350.60001"
   class="st0"
   width="1.9"
   height="15"
   style="fill:#ffffff;fill-opacity:1" />
		</g>
		<g
   id="XMLID_571_"
   style="fill:#ffffff;fill-opacity:1">
			<polygon
   id="XMLID_572_"
   class="st0"
   points="425.6,365.6 420.9,350.6 423,350.6 426.4,362.8 429.8,350.6 431.9,350.6 427.2,365.6 "
   style="fill:#ffffff;fill-opacity:1" />
		</g>
		<g
   id="XMLID_569_"
   style="fill:#ffffff;fill-opacity:1">
			<rect
   id="XMLID_570_"
   x="442"
   y="350.60001"
   class="st0"
   width="1.9"
   height="15"
   style="fill:#ffffff;fill-opacity:1" />
		</g>
		<g
   id="XMLID_567_"
   style="fill:#ffffff;fill-opacity:1">
			<polygon
   id="XMLID_568_"
   class="st0"
   points="463.3,350.6 463.3,352.1 456.5,364 463.6,364 463.6,365.6 454.4,365.6 454.4,364.2 461.2,352.3 454.5,352.3 454.5,350.6 "
   style="fill:#ffffff;fill-opacity:1" />
		</g>
		<g
   id="XMLID_565_"
   style="fill:#ffffff;fill-opacity:1">
			<polygon
   id="XMLID_566_"
   class="st0"
   points="474,350.6 482,350.6 482,352.3 475.9,352.3 475.9,357.1 481.2,357.1 481.2,358.7 475.9,358.7 475.9,364 482.1,364 482.1,365.6 474,365.6 "
   style="fill:#ffffff;fill-opacity:1" />
		</g>
		<g
   id="XMLID_560_"
   style="fill:#ffffff;fill-opacity:1">
			<path
   id="XMLID_561_"
   class="st0"
   d="m 530.9,361.6 c 0,-0.7 0.2,-1.4 0.5,-2 0.3,-0.6 1,-1.3 2,-2.1 -0.6,-0.8 -1,-1.4 -1.2,-1.9 -0.2,-0.5 -0.3,-1 -0.3,-1.5 0,-1.1 0.3,-2 0.9,-2.7 0.6,-0.6 1.4,-1 2.4,-1 0.9,0 1.7,0.3 2.2,0.9 0.6,0.6 0.9,1.4 0.9,2.3 0,0.6 -0.1,1.1 -0.4,1.6 -0.2,0.5 -0.6,1 -1.2,1.5 l -1.1,0.9 2.6,3.8 c 0.3,-0.8 0.5,-1.7 0.5,-2.8 h 1.6 c 0,1.7 -0.4,3.2 -1.1,4.3 l 1.8,2.6 h -2.2 l -0.8,-1.1 c -0.4,0.4 -0.9,0.7 -1.4,1 -0.5,0.3 -1.1,0.4 -1.7,0.4 -1.3,0 -2.3,-0.4 -3,-1.2 -0.7,-0.7 -1,-1.7 -1,-3 z m 4.1,2.7 c 0.8,0 1.5,-0.4 2.2,-1.1 l -3,-4.3 -0.3,0.3 c -0.8,0.8 -1.2,1.6 -1.2,2.5 0,0.8 0.2,1.4 0.6,1.9 0.4,0.5 1,0.7 1.7,0.7 z M 533.7,354 c 0,0.4 0.1,0.8 0.3,1.1 0.2,0.4 0.4,0.8 0.7,1.2 l 0.8,-0.7 c 0.4,-0.3 0.7,-0.7 0.9,-1 0.2,-0.3 0.2,-0.7 0.2,-1.2 0,-0.5 -0.1,-0.8 -0.4,-1.1 -0.3,-0.3 -0.6,-0.5 -1,-0.5 -0.4,0 -0.8,0.2 -1.1,0.6 -0.3,0.6 -0.4,1 -0.4,1.6 z"
   inkscape:connector-curvature="0"
   style="fill:#ffffff;fill-opacity:1" />
		</g>
		<g
   id="XMLID_556_"
   style="fill:#ffffff;fill-opacity:1">
			<path
   id="XMLID_557_"
   class="st0"
   d="m 557.8,361.7 h -5.1 l -1.2,3.9 h -1.9 l 4.8,-15 h 1.6 l 4.8,15 H 559 Z m -4.6,-1.6 h 4.1 l -2.1,-6.8 z"
   inkscape:connector-curvature="0"
   style="fill:#ffffff;fill-opacity:1" />
		</g>
		<g
   id="XMLID_551_"
   style="fill:#ffffff;fill-opacity:1">
			<g
   id="XMLID_552_"
   style="fill:#ffffff;fill-opacity:1">
				<path
   id="XMLID_553_"
   class="st0"
   d="m 520.4,355.8 c 0,-0.2 0,-0.3 0,-0.5 0,-0.2 -0.1,-0.4 -0.1,-0.5 -0.2,-1.1 -0.6,-2 -1.1,-2.7 -0.9,-1.1 -2.1,-1.7 -3.7,-1.7 -0.4,0 -0.8,0 -1.2,0.1 0,0 0,0 -0.1,0 v 0 c -0.7,0.1 -1.2,0.4 -1.7,0.8 v 0 c -0.7,0.5 -1.2,1.2 -1.5,2.1 -0.2,0.6 -0.4,1.2 -0.4,1.9 0,0 0,0.1 0,0.1 0,0.4 -0.1,0.9 -0.1,1.4 v 0 2.7 0.1 c 0,0.3 0,0.6 0.1,0.9 0,0.2 0,0.3 0,0.5 0,0.2 0.1,0.4 0.1,0.5 0,0.2 0.1,0.5 0.2,0.7 0,0 0,0 0,0 0.2,0.8 0.5,1.4 1,2 0.9,1.1 2.1,1.7 3.7,1.7 0.4,0 0.8,0 1.2,-0.1 0,0 0,0 0.1,0 v 0 c 0.1,0 0.2,-0.1 0.3,-0.1 0.4,-0.2 0.8,-0.4 1.2,-0.6 l 1,0.9 1.3,-1.2 -1,-0.9 c 0.2,-0.3 0.3,-0.6 0.5,-0.9 0,0 0,0 0,0 0.2,-0.6 0.4,-1.2 0.4,-1.9 0,0 0,-0.1 0,-0.1 0,-0.4 0.1,-0.9 0.1,-1.4 v 0 -2.7 -0.1 c -0.2,-0.4 -0.3,-0.7 -0.3,-1 z m -3.4,5.7 -1.2,1.3 1.2,1.1 c -0.4,0.2 -0.9,0.4 -1.5,0.4 -0.2,0 -0.4,0 -0.6,-0.1 -0.1,0 -0.2,0 -0.3,-0.1 -0.1,0 -0.2,0 -0.2,-0.1 -0.1,-0.1 -0.3,-0.1 -0.4,-0.2 0,0 0,0 0,0 -0.3,-0.2 -0.6,-0.4 -0.8,-0.8 -0.5,-0.8 -0.8,-2 -0.8,-3.5 0,0 0,0 0,0 v -2.7 c 0,-0.4 0,-0.7 0.1,-1 0,0 0,0 0,-0.1 0.1,-1 0.4,-1.8 0.7,-2.4 0.5,-0.8 1.3,-1.2 2.3,-1.2 0.2,0 0.4,0 0.6,0.1 0.1,0 0.2,0 0.3,0.1 0.1,0 0.2,0 0.2,0.1 0.1,0.1 0.3,0.1 0.4,0.2 0,0 0,0 0,0 0.3,0.2 0.6,0.4 0.8,0.8 0.5,0.8 0.8,2 0.8,3.5 0,0 0,0 0,0 v 2.7 c 0,0.4 0,0.7 -0.1,1 0,0 0,0 0,0.1 -0.1,0.7 -0.2,1.3 -0.5,1.9 z"
   inkscape:connector-curvature="0"
   style="fill:#ffffff;fill-opacity:1" />
			</g>
		</g>
	</g>
</g>
<polygon
   id="XMLID_61_"
   class="st2"
   points="447.3,301.8 447.3,266.9 438,271.7 438,301.8 "
   style="fill:#46cdcf;stroke:#3d5da8;stroke-width:1;stroke-linecap:butt;stroke-linejoin:miter;stroke-miterlimit:10;stroke-dasharray:none;stroke-opacity:1;paint-order:markers fill stroke"
   inkscape:export-xdpi="600"
   inkscape:export-ydpi="600"
   transform="translate(-240.5,-222.8)" />
<polygon
   id="XMLID_62_"
   class="st2"
   points="438,267.4 447.3,264.2 447.3,258.5 438,259.3 "
   style="fill:#46cdcf;stroke:#3d5da8;stroke-width:1;stroke-linecap:butt;stroke-linejoin:miter;stroke-miterlimit:10;stroke-dasharray:none;stroke-opacity:1;paint-order:markers fill stroke"
   inkscape:export-xdpi="600"
   inkscape:export-ydpi="600"
   transform="translate(-240.5,-222.8)" />
<polygon
   id="XMLID_29_"
   class="st2"
   points="514.3,250.9 504,252.2 492.9,306.2 502.3,307.4 503.2,301.2 512.4,302.5 511.4,295.7 504,295.1 509.1,258.7 516.3,309.2 525.5,310.8 "
   style="fill:#46cdcf;stroke:#3d5da8;stroke-width:1;stroke-linecap:butt;stroke-linejoin:miter;stroke-miterlimit:10;stroke-dasharray:none;stroke-opacity:1;paint-order:markers fill stroke"
   inkscape:export-xdpi="600"
   inkscape:export-ydpi="600"
   transform="translate(-240.5,-222.8)" />
<polygon
   id="XMLID_84_"
   class="st0"
   points="347,312.7 346.8,313.6 421.5,337.3 496.2,313.6 496.2,313.6 495.9,312.7 421.5,334.3 "
   inkscape:export-xdpi="600"
   inkscape:export-ydpi="600"
   style="fill:#3d84a8"
   transform="translate(-240.5,-222.8)" />
</svg>